<svg xmlns="http://www.w3.org/2000/svg" xmlns:xlink="http://www.w3.org/1999/xlink" preserveAspectRatio="xMidYMid" width="54" height="54" viewBox="0 0 54 54">
  <defs>
    <style>
      .cls-1 {
        fill: #3b2517;
      }

      .cls-2 {
        fill: #fff;
        fill-rule: evenodd;
      }
    </style>
  </defs>
  <g>
    <circle cx="27" cy="27" r="27" class="cls-1"/>
    <path d="M22.816,36.287 C22.829,36.272 22.845,36.256 22.861,36.239 C22.857,36.234 22.853,36.229 22.855,36.226 C22.797,36.262 22.734,36.337 22.676,36.374 C22.423,36.583 22.230,36.959 22.042,37.176 C21.549,36.580 22.217,35.873 22.181,35.091 C22.141,34.228 21.753,33.365 22.499,32.864 C21.993,33.925 22.467,35.108 22.264,36.208 C22.350,36.322 22.399,36.313 22.544,36.342 C22.537,36.329 22.530,36.314 22.523,36.296 C22.099,35.909 22.510,35.384 22.525,34.913 C22.535,34.602 22.348,34.272 22.369,33.954 C22.390,33.642 22.635,33.293 22.711,32.890 C22.877,32.013 22.579,31.039 22.796,30.356 C22.956,29.852 23.315,29.447 23.495,29.006 C23.373,30.299 23.780,31.954 24.352,33.150 C24.259,31.704 23.203,29.970 23.759,28.596 C24.009,27.981 24.655,27.397 24.889,26.801 C24.780,27.580 24.320,28.316 24.983,29.191 C25.031,28.662 24.999,28.124 25.011,27.591 C26.191,26.558 25.457,24.992 26.181,24.087 C26.156,24.987 27.143,26.308 27.499,27.071 C26.947,25.085 26.756,23.144 28.596,21.457 C28.566,20.807 28.980,19.919 29.313,19.500 C29.259,20.525 29.386,21.868 29.788,22.767 C29.530,21.499 29.232,19.932 29.543,18.920 C29.614,19.574 29.699,20.524 29.995,21.022 C29.778,19.963 29.705,18.627 29.945,17.808 C30.018,18.224 30.005,18.921 30.215,19.169 C30.086,18.342 30.165,17.541 30.818,16.811 C30.984,17.055 30.720,17.534 30.940,17.601 C30.948,16.938 31.030,15.990 31.610,15.583 C31.650,15.866 31.635,16.432 31.873,16.556 C31.591,15.695 31.813,14.688 32.688,14.224 C33.211,13.947 34.000,14.437 34.440,14.000 C34.705,14.045 34.939,14.341 35.192,14.481 C35.395,14.746 35.597,15.010 35.799,15.275 C36.378,17.062 35.540,18.672 35.358,20.364 C35.168,20.524 35.015,20.690 34.974,20.869 C35.052,20.822 35.136,20.723 35.200,20.786 C35.074,21.440 34.857,22.106 34.589,22.757 C34.331,23.382 34.189,24.120 33.872,24.713 C33.485,25.435 32.875,26.076 32.538,26.870 C32.599,27.633 31.533,28.256 31.582,29.018 C31.463,29.225 31.127,29.404 31.079,29.619 C31.157,29.572 31.241,29.473 31.305,29.537 C30.142,30.643 29.541,32.059 28.149,32.960 C28.398,32.987 28.701,32.552 28.971,32.398 C29.433,32.169 28.721,32.673 28.541,32.842 C28.010,33.341 27.092,33.852 26.753,34.278 C27.371,34.070 28.053,33.318 28.681,33.026 C28.165,33.663 26.951,34.442 26.463,34.906 C26.748,34.926 27.068,34.649 27.352,34.685 C26.173,35.685 25.050,36.206 24.003,36.093 C24.183,35.765 24.520,35.457 24.710,35.130 C25.034,35.143 25.642,35.145 25.812,34.936 C25.466,34.976 25.105,35.141 24.783,34.973 C25.941,33.624 26.797,32.238 27.804,30.870 C28.528,30.828 29.553,30.663 30.165,30.058 C29.365,30.439 28.581,30.680 27.817,30.761 C28.731,29.374 29.548,27.954 30.287,26.520 C30.996,26.217 31.975,25.634 32.577,25.107 C31.916,25.522 31.237,25.877 30.524,26.056 C31.107,24.895 31.641,23.727 32.132,22.561 C33.288,19.815 34.234,16.995 34.427,14.109 C34.145,15.403 33.805,16.690 33.404,17.970 C33.200,18.580 32.941,19.299 32.603,20.135 C32.454,18.804 32.251,18.708 32.035,18.282 C32.025,18.263 32.016,18.244 32.006,18.225 C32.016,18.244 32.025,18.263 32.035,18.282 C32.339,18.896 32.496,19.687 32.366,20.710 C31.703,22.282 30.774,24.230 29.440,26.611 C29.304,26.858 29.070,27.235 28.776,27.693 C28.508,26.687 28.418,25.609 28.390,24.513 C28.289,25.589 28.319,27.102 28.468,28.168 C26.887,30.586 24.168,34.491 24.184,34.567 C24.030,34.663 24.128,34.349 24.057,34.275 C23.895,34.276 24.218,34.808 23.813,34.963 C23.829,34.979 23.848,34.982 23.867,34.979 C23.819,35.040 23.773,35.100 23.727,35.157 C23.715,35.153 23.700,35.155 23.681,35.168 C23.422,35.449 23.228,35.738 22.987,36.021 C22.900,36.071 22.899,36.131 22.930,36.142 C22.914,36.160 22.905,36.180 22.898,36.198 C22.914,36.181 22.931,36.162 22.949,36.142 C22.957,36.140 22.965,36.137 22.974,36.130 C23.112,35.987 23.234,35.840 23.349,35.694 C24.469,34.416 29.399,26.877 29.411,26.857 C31.655,23.099 33.013,19.366 34.161,15.901 C32.826,22.095 29.567,28.508 25.179,34.359 C24.359,35.453 23.499,36.613 22.562,37.707 C22.849,37.451 23.174,36.978 23.508,37.082 C23.199,37.373 22.876,37.729 22.503,37.775 C21.451,38.996 20.302,40.132 19.000,41.000 C19.758,39.364 21.794,37.889 22.816,36.287 ZM33.787,21.329 C34.129,21.333 34.491,21.156 34.868,20.856 C34.513,20.975 34.150,21.151 33.787,21.329 ZM28.471,22.049 C28.265,22.143 28.326,23.205 28.278,23.684 C28.458,23.374 28.390,22.556 28.471,22.049 Z" class="cls-2"/>
  </g>
</svg>
