<svg xmlns="http://www.w3.org/2000/svg" xmlns:xlink="http://www.w3.org/1999/xlink" preserveAspectRatio="xMidYMid" width="54" height="54" viewBox="0 0 54 54">
  <defs>
    <style>
      .cls-1 {
        fill: #3b2517;
      }

      .cls-2 {
        fill: #fff;
        fill-rule: evenodd;
      }
    </style>
  </defs>
  <g>
    <circle cx="27" cy="27" r="27" class="cls-1"/>
    <path d="M35.824,31.814 L18.176,31.814 C17.527,31.814 17.000,31.276 17.000,30.613 L17.000,19.201 C17.000,18.538 17.527,18.000 18.176,18.000 L35.824,18.000 C36.473,18.000 37.000,18.538 37.000,19.201 L37.000,30.613 C37.000,31.276 36.473,31.814 35.824,31.814 ZM26.685,31.254 C26.741,31.355 26.799,31.406 26.857,31.406 C26.877,31.406 26.902,31.399 26.933,31.386 C26.964,31.373 26.992,31.366 27.015,31.366 C27.039,31.366 27.068,31.372 27.102,31.385 C27.136,31.398 27.163,31.404 27.182,31.404 C27.231,31.404 27.280,31.366 27.330,31.289 C27.363,31.238 27.386,31.189 27.401,31.142 C27.367,31.132 27.336,31.107 27.310,31.068 C27.283,31.029 27.270,30.986 27.270,30.937 C27.270,30.893 27.283,30.852 27.308,30.816 C27.322,30.796 27.343,30.773 27.373,30.747 C27.353,30.722 27.333,30.702 27.313,30.688 C27.277,30.663 27.237,30.650 27.191,30.650 C27.163,30.650 27.130,30.657 27.091,30.670 C27.053,30.683 27.026,30.690 27.009,30.690 C26.996,30.690 26.970,30.684 26.930,30.672 C26.890,30.660 26.856,30.655 26.828,30.655 C26.762,30.655 26.708,30.683 26.665,30.739 C26.622,30.796 26.600,30.869 26.600,30.958 C26.600,31.055 26.628,31.153 26.685,31.254 ZM27.184,30.454 C27.184,30.450 27.184,30.446 27.184,30.442 C27.183,30.439 27.183,30.434 27.181,30.429 C27.114,30.445 27.066,30.474 27.037,30.516 C27.008,30.558 26.994,30.609 26.993,30.667 C27.019,30.664 27.039,30.661 27.052,30.657 C27.073,30.650 27.093,30.636 27.114,30.614 C27.139,30.590 27.156,30.563 27.168,30.534 C27.179,30.505 27.184,30.478 27.184,30.454 ZM35.824,19.201 L18.176,19.201 L18.176,30.012 L35.824,30.012 L35.824,19.201 ZM24.059,34.817 L24.059,32.419 L29.892,32.402 L29.892,34.767 C29.892,34.767 30.824,35.255 31.069,35.506 C31.314,35.756 30.529,36.006 30.529,36.006 L23.324,36.006 C22.686,36.006 22.931,35.405 22.931,35.405 L24.059,34.817 Z" class="cls-2"/>
  </g>
</svg>
