<svg xmlns="http://www.w3.org/2000/svg" xmlns:xlink="http://www.w3.org/1999/xlink" preserveAspectRatio="xMidYMid" width="54" height="54" viewBox="0 0 54 54">
  <defs>
    <style>
      .cls-1 {
        fill: #3b2517;
      }

      .cls-2 {
        fill: #fff;
        fill-rule: evenodd;
      }
    </style>
  </defs>
  <g>
    <circle cx="27" cy="27" r="27" class="cls-1"/>
    <path d="M31.243,17.619 C31.243,17.619 28.557,20.851 26.497,23.394 C26.774,23.717 26.176,24.907 26.176,24.907 C26.176,24.907 25.501,25.615 24.695,25.619 C24.143,26.301 23.993,26.570 23.993,26.570 L20.757,23.251 C20.757,23.251 21.085,22.978 21.612,22.537 C21.806,22.375 21.405,21.822 22.386,20.983 C22.386,20.983 22.853,20.185 23.917,20.421 C26.394,18.353 29.960,15.339 29.960,15.339 C33.453,12.742 33.975,13.008 33.975,13.008 C34.251,13.039 32.336,16.184 31.243,17.619 ZM14.010,29.924 C14.010,29.924 17.279,30.343 17.279,27.242 C17.279,24.141 20.458,23.949 20.458,23.949 L23.502,27.015 C20.642,33.679 14.010,29.924 14.010,29.924 Z" class="cls-2"/>
    <path d="M36.911,26.334 C36.587,26.786 31.704,32.039 31.704,32.039 L31.048,31.442 L36.111,26.207 C36.111,26.207 35.971,25.528 35.640,25.950 L24.571,37.189 L22.165,34.571 L33.858,23.309 C34.255,22.632 34.797,23.269 34.797,23.269 C34.955,23.287 36.627,25.286 36.627,25.286 C36.627,25.286 37.209,25.919 36.911,26.334 ZM21.944,40.339 L17.509,41.999 L19.620,39.879 C19.984,40.033 20.510,39.932 20.807,39.637 C21.198,39.249 21.198,38.619 20.807,38.230 C20.417,37.842 19.753,37.812 19.363,38.201 C19.072,38.490 18.953,39.018 19.095,39.375 L16.992,41.528 C17.381,40.153 18.699,36.789 18.699,36.789 L21.684,35.219 L24.002,37.581 L21.944,40.339 Z" class="cls-2"/>
  </g>
</svg>
